# xmcd CD database file
#
# Track frame offsets:
#	150
#	12791
#	25238
#	37880
#	51338
#	63041
#	74632
#	87182
#	101024
#	115736
#	129233
#	142311
#	154269
#	165519
#	177894
#	191282
#	205907
#	218395
#	230020
#	243295
#
# Disc length: 3418 seconds
#
# Revision: 0
# Processed by: cddbd v1.5.2PL0 Copyright (c) Steve Scherf et al.
# Submitted via: CDex 1.70beta2
#
DISCID=0b0d5814
DTITLE=Memphis Minnie - 20 Légendes du Blues CD 11
DYEAR=2008
DGENRE=Blues
TTITLE0=Bumble Bee
TTITLE1=Nothing Is Rambling
TTITLE2=Me And My Chauffeur
TTITLE3=I Got To Take A Change Blues
TTITLE4=You Got Make A Change Blues
TTITLE5=When My Man Comes Home
TTITLE6=Dirty Mother For You
TTITLE7=Hoodoo Lady
TTITLE8=If You See My Rooster (Plese Run Him Homel)
TTITLE9=Good Morning
TTITLE10=I've Been Treated Wrong
TTITLE11=I'mSailin'
TTITLE12=Sugar Mama Blues
TTITLE13=After Hours Blues
TTITLE14=A and B Blues
TTITLE15=Vicksburg Blues
TTITLE16=Down Home Girl
TTITLE17=Kid Man Blues
TTITLE18=I Sit Up All Night
TTITLE19=Hard Work Boogie
EXTD=YEAR: 2008
EXTT0=
EXTT1=
EXTT2=
EXTT3=
EXTT4=
EXTT5=
EXTT6=
EXTT7=
EXTT8=
EXTT9=
EXTT10=
EXTT11=
EXTT12=
EXTT13=
EXTT14=
EXTT15=
EXTT16=
EXTT17=
EXTT18=
EXTT19=
PLAYORDER=
